Coordinates
version=1
nRows=22
nColumns=24
inDegrees=yes

Units are S.I. units (second, meters, Newtons, ...)
Angles are in degrees.

endheader
time	pelvis_tilt	pelvis_list	pelvis_rotation	pelvis_tx	pelvis_ty	pelvis_tz	hip_flexion_r	hip_adduction_r	hip_rotation_r	knee_angle_r	ankle_angle_r	subtalar_angle_r	mtp_angle_r	hip_flexion_l	hip_adduction_l	hip_rotation_l	knee_angle_l	ankle_angle_l	subtalar_angle_l	mtp_angle_l	lumbar_extension	lumbar_bending	lumbar_rotation
      1.02900000	     -0.82679999	     -0.61774942	     -3.74335205	     -0.19204077	      0.97037350	      0.32895146	    -12.18617240	      3.46192052	     -5.53520729	    -10.56630404	     17.64707421	      1.73487353	      4.04521534	     24.38881816	      0.11413005	     -4.73701342	     -0.82276148	      0.87805738	     -2.83898983	     -0.80484198	     -1.71091622	      3.40598885	      7.63930099
      1.03316667	     -0.85815655	     -0.53247807	     -3.81377465	     -0.18619809	      0.96974256	      0.32864159	    -12.21478610	      3.27557781	     -5.53932063	    -11.15500967	     17.78471545	      1.84535843	      4.00860319	     24.35811577	      0.24785961	     -4.83814808	     -0.77562218	      0.61706805	     -3.08548080	     -0.75287155	     -1.66405562	      3.32160306	      7.70769944
      1.03733333	     -0.88830815	     -0.42954536	     -3.86980968	     -0.18035009	      0.96918708	      0.32831440	    -12.22367705	      3.06909708	     -5.57801125	    -11.77784537	     17.84581228	      1.96197058	      3.96178266	     24.31186727	      0.39819123	     -4.85549253	     -0.78508293	      0.31507134	     -3.47034543	     -0.67553291	     -1.60109445	      3.20413459	      7.74489068
      1.04150000	     -0.91750126	     -0.32962751	     -3.92069123	     -0.17445489	      0.96868896	      0.32801032	    -12.23545165	      2.87462988	     -5.55593169	    -12.39546609	     17.85821379	      1.95703635	      3.93413022	     24.30164531	      0.54501153	     -4.98260044	     -0.93728507	      0.01156937	     -3.72701510	     -0.61074153	     -1.52878983	      3.07694311	      7.75188336
      1.04566667	     -0.95098339	     -0.20831785	     -3.95835606	     -0.16853591	      0.96822196	      0.32767722	    -12.22820233	      2.65958373	     -5.52004449	    -13.03884945	     17.82934338	      1.91448230	      3.92102593	     24.31242766	      0.71634287	     -5.07809468	     -1.17781387	     -0.31457080	     -4.00082026	     -0.55423712	     -1.46010025	      2.93439769	      7.75096294
      1.04983333	     -1.00173039	     -0.11030213	     -3.98783358	     -0.16262883	      0.96777536	      0.32732111	    -12.16801428	      2.46762315	     -5.50056564	    -13.75081014	     17.80270447	      1.89063051	      3.91908597	     24.35498553	      0.86614745	     -5.09343424	     -1.49533066	     -0.70148356	     -4.41982275	     -0.45733936	     -1.35917978	      2.81272963	      7.76355991
      1.05400000	     -1.03848114	      0.00417971	     -4.00200986	     -0.15668204	      0.96739443	      0.32695737	    -12.11815554	      2.26480738	     -5.46375908	    -14.46720554	     17.71882283	      1.81014065	      3.93296593	     24.39533602	      1.03528541	     -5.10578405	     -1.88388195	     -1.11447378	     -4.80346807	     -0.35592131	     -1.27956504	      2.66592158	      7.75358254
      1.05816667	     -1.10992785	      0.11590422	     -4.01196469	     -0.15072922	      0.96701870	      0.32657063	    -11.99897389	      2.06499042	     -5.41962592	    -15.24253958	     17.59111067	      1.69762429	      3.97155127	     24.48361236	      1.20034513	     -5.07045992	     -2.33566124	     -1.55223523	     -5.25065527	     -0.22158849	     -1.15534359	      2.53240299	      7.74195501
      1.06233333	     -1.13864090	      0.26190078	     -4.00520007	     -0.14470349	      0.96674503	      0.32616367	    -11.92219768	      1.82995685	     -5.38030305	    -16.02157019	     17.39318582	      1.53610959	      4.00075166	     24.53925222	      1.40349091	     -5.08483245	     -2.85142622	     -1.99061096	     -5.55876540	     -0.14865255	     -1.07117752	      2.34570416	      7.71521646
      1.06650000	     -1.22154847	      0.35607928	     -3.98311954	     -0.13873893	      0.96643399	      0.32573276	    -11.74788137	      1.65827944	     -5.33309292	    -16.87472448	     17.22718670	      1.38668985	      4.08767626	     24.66339268	      1.56094926	     -4.94857821	     -3.41070069	     -2.51512826	     -6.12709104	      0.00225313	     -0.92919423	      2.23320713	      7.68667645
      1.07066667	     -1.26567097	      0.48584720	     -3.94695256	     -0.13271220	      0.96622099	      0.32525697	    -11.60043782	      1.44512068	     -5.30077329	    -17.75051700	     16.95622360	      1.19104790	      4.27272767	     24.74041219	      1.76517876	     -4.79137944	     -3.99000552	     -2.99521147	     -6.66902286	      0.26878338	     -0.83617430	      2.07916895	      7.64989306
      1.07483333	     -1.28290953	      0.61854306	     -3.88188113	     -0.12663454	      0.96610299	      0.32475155	    -11.47379250	      1.23461395	     -5.28854704	    -18.63676483	     16.61529679	      0.92075295	      4.92682824	     24.77250253	      1.98539887	     -4.59042080	     -4.54997370	     -3.61932975	     -7.22248932	      1.03652645	     -0.76333918	      1.90998860	      7.60122150
      1.07900000	     -1.38597110	      0.73865487	     -3.84868665	     -0.12059727	      0.96589551	      0.32428857	    -11.19847264	      1.03692757	     -5.22028240	    -19.61992298	     16.28397893	      0.74941073	      5.06715357	     24.97083562	      2.15771805	     -4.56634570	     -5.28900638	     -4.05317495	     -7.51253660	      1.16305216	     -0.58623452	      1.76382561	      7.54021403
      1.08316667	     -1.45277358	      0.87192595	     -3.78813191	     -0.11451689	      0.96579132	      0.32376990	    -10.94561443	      0.82636056	     -5.17754435	    -20.62784036	     15.85612944	      0.49322489	      5.23664189	     25.09148734	      2.36675112	     -4.41100007	     -5.96209612	     -4.55657437	     -7.93387163	      1.28987800	     -0.45036239	      1.59983597	      7.47744445
      1.08733333	     -1.50025372	      1.01152490	     -3.70900944	     -0.10840720	      0.96574557	      0.32322218	    -10.69003302	      0.60839570	     -5.15933098	    -21.67291819	     15.38079677	      0.23167405	      5.46759501	     25.19198280	      2.59198094	     -4.22852235	     -6.65289958	     -5.03883113	     -8.37746960	      1.43397005	     -0.33380654	      1.42421849	      7.40344975
      1.09150000	     -1.50195378	      1.17583809	     -3.59834869	     -0.10222855	      0.96579830	      0.32260023	    -10.47321154	      0.35147474	     -5.22464868	    -22.71700001	     14.69298665	     -0.01496729	      9.58631262	     25.23327710	      2.86176094	     -4.01898825	     -7.33578537	     -5.51606554	     -8.85427861	      3.56485603	     -0.26876460	      1.22042158	      7.33091243
      1.09566667	     -1.55203998	      1.33179632	     -3.52923352	     -0.09610450	      0.96582890	      0.32204768	    -10.13947542	      0.11018426	     -5.17792483	    -23.88284126	     14.15752260	     -0.31436548	      9.63717001	     25.33826453	      3.09339957	     -3.90316492	     -8.05437637	     -5.91886269	     -9.13370016	      3.55914868	     -0.14691667	      1.03104152	      7.25052407
      1.09983333	     -1.58968784	      1.48945412	     -3.43096393	     -0.08994275	      0.96591317	      0.32144150	     -9.80255447	     -0.13535127	     -5.17948753	    -25.06689735	     13.48071981	     -0.58676563	      9.73149471	     25.41859753	      3.34474677	     -3.72275668	     -8.76462077	     -6.28023019	     -9.47821896	      3.55539200	     -0.03203891	      0.83372671	      7.16968983
      1.10400000	     -1.61320784	      1.66271302	     -3.31776087	     -0.08377662	      0.96603609	      0.32078556	     -9.44991353	     -0.40188347	     -5.19578662	    -26.29796013	     12.79618668	     -0.86828104	     10.03343877	     25.47593109	      3.62781931	     -3.48969451	     -9.47036945	     -6.59160113	     -9.93162062	      3.54976265	      0.05992663	      0.62041917	      7.06267050
      1.10816667	     -1.60456436	      1.84159388	     -3.20884734	     -0.07757423	      0.96624770	      0.32014507	     -9.10684466	     -0.68409043	     -5.23034560	    -27.55372331	     11.93513379	     -1.08893630	     10.18859090	     25.48606523	      3.90468600	     -3.34912443	    -10.15969700	     -6.86311203	    -10.13233661	      3.54348092	      0.12623142	      0.40053425	      6.98650308
      1.11233333	     -1.63116748	      2.01401922	     -3.07684800	     -0.07141526	      0.96642229	      0.31944036	     -8.69295767	     -0.95646250	     -5.26269373	    -28.85677219	     11.07549322	     -1.31814897	     10.52937205	     25.54617526	      4.19337929	     -3.13654981	    -10.88086764	     -7.10737742	    -10.53386575	      3.52525428	      0.21883317	      0.19084920	      6.86783233
      1.11650000	     -1.60894859	      2.21724977	     -2.96665782	     -0.06519114	      0.96671232	      0.31876624	     -8.29803245	     -1.28010274	     -5.31136854	    -30.20709461	     10.09832190	     -1.55221413	     10.77150918	     25.50302154	      4.50304811	     -2.97398669	    -11.51499734	     -7.24115359	    -10.72696044	      3.50832315	      0.28000745	     -0.05702338	      6.78595184
